<svg width="24" height="32" viewBox="0 0 24 32" fill="none" xmlns="http://www.w3.org/2000/svg">
<path d="M23 5V25.5556C23 28.317 20.7614 30.5556 18 30.5556H5" stroke="currentColor" stroke-width="2" stroke-linecap="round" stroke-linejoin="round"/>
<path d="M17 0C18.6569 0 20 1.34315 20 3V24.5557C19.9999 26.2125 18.6568 27.5557 17 27.5557H3C1.34318 27.5557 5.87545e-05 26.2125 0 24.5557V3C3.86559e-07 1.34315 1.34315 0 3 0H17ZM7 18.8896C6.44772 18.8896 6 19.3374 6 19.8896C6.00038 20.4416 6.44795 20.8896 7 20.8896H13C13.552 20.8896 13.9996 20.4416 14 19.8896C14 19.3374 13.5523 18.8896 13 18.8896H7ZM5 14.4443C4.4478 14.4443 4.00013 14.8922 4 15.4443C4.00012 15.9965 4.44779 16.4443 5 16.4443H15C15.5522 16.4443 15.9999 15.9965 16 15.4443C15.9999 14.8922 15.5522 14.4443 15 14.4443H5ZM7 10C6.4478 10 6.00013 10.4478 6 11C6.00012 11.5522 6.44779 12 7 12H13C13.5522 12 13.9999 11.5522 14 11C13.9999 10.4478 13.5522 10 13 10H7ZM5 5.55566C4.44772 5.55566 4 6.00338 4 6.55566C4.00012 7.10785 4.44779 7.55566 5 7.55566H15C15.5522 7.55566 15.9999 7.10785 16 6.55566C16 6.00338 15.5523 5.55566 15 5.55566H5Z" fill="currentColor"/>
</svg>
