<svg width="29" height="30" viewBox="0 0 29 30" fill="none" xmlns="http://www.w3.org/2000/svg">
<path d="M2.13637 27.498L1.27156 26.9959L1.27143 26.9962L2.13637 27.498ZM11.4655 11.4297L12.3303 11.9318C12.4188 11.7793 12.4655 11.606 12.4655 11.4297L11.4655 11.4297ZM11.4655 0.999999L11.4655 -1.31283e-06C11.2003 -1.33576e-06 10.9459 0.105355 10.7584 0.292891C10.5708 0.480427 10.4655 0.734782 10.4655 0.999999L11.4655 0.999999ZM17.2711 0.999999L18.2711 0.999999C18.2711 0.447715 17.8234 -7.63313e-07 17.2711 -8.11047e-07L17.2711 0.999999ZM17.2711 11.5713L16.2711 11.5713C16.2711 11.7476 16.3178 11.9209 16.4063 12.0734L17.2711 11.5713ZM26.5182 27.498L27.3831 26.996L27.383 26.9959L26.5182 27.498ZM25.6539 29L25.6539 30L25.6544 30L25.6539 29ZM3.0016 29L3.0016 28L3.00131 27.9999L2.13637 27.498L1.27143 26.9962C0.497604 28.3298 1.46043 30 3.0016 30L3.0016 29ZM2.13637 27.498L3.00118 28.0001L12.3303 11.9318L11.4655 11.4297L10.6007 10.9276L1.27156 26.9959L2.13637 27.498ZM11.4655 11.4297L12.4655 11.4297L12.4655 0.999999L11.4655 0.999999L10.4655 0.999999L10.4655 11.4297L11.4655 11.4297ZM11.4655 0.999999L11.4655 2L17.2711 2L17.2711 0.999999L17.2711 -8.11047e-07L11.4655 -1.31283e-06L11.4655 0.999999ZM17.2711 0.999999L16.2711 0.999999L16.2711 11.5713L17.2711 11.5713L18.2711 11.5713L18.2711 0.999999L17.2711 0.999999ZM17.2711 11.5713L16.4063 12.0734L25.6534 28.0002L26.5182 27.498L27.383 26.9959L18.1359 11.0692L17.2711 11.5713ZM26.5182 27.498L25.6534 28.0001L25.6535 28L25.6539 29L25.6544 30C27.1957 29.9993 28.1568 28.329 27.3831 26.996L26.5182 27.498ZM25.6539 29L25.6539 28L3.0016 28L3.0016 29L3.0016 30L25.6539 30L25.6539 29Z" fill="currentColor"/>
<path d="M8.85809 1L19.9844 1" stroke="currentColor" stroke-width="2" stroke-linecap="round"/>
<path d="M21.3294 19H7L1 29H27.5L21.3294 19Z" fill="currentColor" stroke="currentColor" stroke-width="2" stroke-linejoin="round"/>
</svg>
